<?xml version="1.0" encoding="UTF-8"?>
<svg width="653px" height="93px" viewBox="0 0 653 93" version="1.1" xmlns="http://www.w3.org/2000/svg" xmlns:xlink="http://www.w3.org/1999/xlink">
    <!-- Generator: Sketch 3.6.1 (26313) - http://www.bohemiancoding.com/sketch -->
    <title>Group 2 Copy</title>
    <desc>Created with Sketch.</desc>
    <defs>
        <path id="path-1" d="M7.67386155e-13,91.5082783 L85.1910526,91.5082783 L85.1910526,4.26325641e-14 L7.67386155e-13,4.26325641e-14 L7.67386155e-13,91.5082783 L7.67386155e-13,91.5082783 Z"></path>
    </defs>
    <g id="Page-1" stroke="none" stroke-width="1" fill="none" fill-rule="evenodd">
        <g id="Group-2-Copy" transform="translate(0.000000, -8.000000)">
            <text id="La-Voyageuse" font-family="CircularStd-Book, Circular Std" font-size="80" font-weight="300" fill="#4A4A4A">
                <tspan x="163" y="80">La Voyageuse</tspan>
            </text>
            <g id="Group" transform="translate(0.000000, 7.000000)">
                <g id="airbnb-a-icon-vector-logo" transform="translate(100.000000, 46.931034) rotate(-180.000000) translate(-100.000000, -46.931034) translate(57.000000, 0.931034)">
                    <mask id="mask-2" fill="white">
                        <use xlink:href="#path-1"></use>
                    </mask>
                    <g id="Clip-2"></g>
                    <path d="M83.9869894,65.0403806 C83.5285431,63.9414613 83.0689965,62.7509044 82.6106725,61.7430126 C81.8761805,60.0948776 81.1416884,58.536428 80.4990079,57.0703481 L80.4071964,56.9798086 C74.0755033,43.2381923 67.2831634,29.3139108 60.1241888,15.5749789 L59.8488765,15.0238109 C59.1147512,13.6494907 58.3803814,12.1834108 57.6466229,10.718185 C56.7281411,9.06809772 55.8101483,7.32930133 54.3421422,5.67958013 C51.4044185,2.01505148 47.1832898,5.68434189e-14 42.685993,5.68434189e-14 C38.0968848,5.68434189e-14 33.9673231,2.01505148 30.9379101,5.49740307 C29.5617156,7.14566003 28.5519113,8.88616471 27.634163,10.5358859 C26.8997932,12.0013557 26.1653011,13.4674356 25.4308091,14.8418779 L25.1559858,15.3899953 C18.0895562,29.1308796 11.2056493,43.0557712 4.87261143,56.7967774 L4.78092218,56.9798086 C4.13811938,58.4449124 3.40387184,60.0017757 2.6693798,61.651619 C2.21081128,62.6602429 1.75150924,63.7591622 1.29306298,64.9497192 C0.0992688983,68.3386028 -0.267488115,71.5453094 0.190958152,74.8426775 C1.20149598,81.7133026 5.79048198,87.4854965 12.1232753,90.0493976 C14.5090297,91.0582656 16.9873291,91.5155995 19.5575623,91.5155995 C20.2916875,91.5155995 21.2096803,91.4242059 21.9441724,91.3317142 C24.9726073,90.9647976 28.0927315,89.9588581 31.1211664,88.2174993 C34.8851936,86.1106882 38.4643753,83.088111 42.5026145,78.6908474 C46.5403648,83.088111 50.2116025,86.1106882 53.8827179,88.2174993 C56.9121308,89.9588581 60.0324995,90.9647976 63.0606899,91.3317142 C63.795182,91.4242059 64.712808,91.5155995 65.4473001,91.5155995 C68.0176555,91.5155995 70.5865438,91.0582656 72.881587,90.0493976 C79.3061918,87.4854965 83.8034886,81.6219091 84.8130484,74.8426775 C85.5475404,71.6360929 85.1799277,68.4309726 83.9869894,65.0403806 L83.9869894,65.0403806 Z M70.8627119,84.8284936 C68.6594802,85.7438937 66.2734814,86.0192946 63.8868712,85.7438937 C61.5930506,85.4693469 59.2980075,84.7363679 56.9121308,83.3636339 C53.6076502,81.5297834 50.303414,78.6908474 46.4487978,74.4764931 C39.7320081,68.331646 36.8662928,75.5388103 29.7073183,81.8759584 C27.3216861,83.2501567 23.5953125,85.5615946 21.3013696,85.8354093 C18.8230702,86.1106882 16.4364601,85.7438937 14.3256512,84.9200092 C9.82835445,83.088111 6.61654103,78.9644181 5.97373824,74.2012141 C5.69867048,71.9114938 5.88204898,69.6217735 6.79991954,67.0566523 C7.0749873,66.139422 7.53428933,65.2253641 7.99285785,64.1249806 C8.63553839,62.6602429 9.36990818,61.1016712 10.1035445,59.5440757 C16.5281493,45.7116759 23.320367,31.7876384 30.3876524,18.2303955 L30.6625979,17.6797156 C31.3970899,16.3069816 32.1306039,14.8418779 32.8659518,13.4674356 C33.5994658,12.0013557 34.4256471,10.6267914 35.4349624,9.43501427 C37.3623927,7.2358334 39.9326259,6.0455205 42.77756,6.0455205 C45.6227387,6.0455205 48.1927274,7.2358334 50.1200355,9.43501427 C51.129473,10.6267914 51.9555321,12.0013557 52.6900241,13.4674356 C53.4243939,14.8418779 54.1579079,16.3069816 54.8922777,17.6797156 L55.1683235,18.2303955 C62.1429416,31.879032 68.9352815,45.8031915 75.2680749,59.4536583 C76.0025669,61.0099116 76.6443917,62.6602429 77.3788837,64.1249806 C77.8380635,65.2253641 78.2968765,66.139422 78.571822,67.0566523 C79.3061918,69.4375221 79.5811373,71.7295608 79.2146248,74.1096985 C78.571822,78.8737566 75.3597641,82.9965954 70.8627119,84.8284936 Z" id="Fill-1" fill="#9A97FF" mask="url(#mask-2)"></path>
                </g>
                <g id="Group-5" transform="translate(0.000000, 1.000000)" fill="#9A97FF">
                    <path d="M22.0024079,0.104166844 L17.0261897,0.104166844 C7.6379029,0.104166844 0,7.73106922 0,17.1058345 L0,70.2651589 L0,75.2343251 C0,76.6683157 0.181753363,78.0963256 0.540077009,79.478675 C0.610221368,79.7493022 0.687967578,80.0208496 0.771127229,80.2865312 C0.812937413,80.419832 0.856590471,80.5534779 0.901280144,80.6845935 C0.990659491,80.9470547 1.08764069,81.210206 1.18968979,81.4673766 C1.49307278,82.2319876 1.85611879,82.9818768 2.26857683,83.6961118 C2.40471909,83.9317748 2.54834801,84.1672078 2.69566268,84.3962001 C2.76880171,84.5097186 2.84470505,84.6246173 2.92118428,84.7374457 C3.07310614,84.9614923 3.23262984,85.185194 3.39537858,85.4022248 C3.72053051,85.8354813 4.06998533,86.2579266 4.43441349,86.6580592 C4.61593649,86.8573779 4.80517653,87.0555465 4.9964898,87.2465842 C5.18745752,87.4372769 5.38568157,87.6261294 5.58586366,87.807851 C8.73038113,90.6632957 12.7933405,92.2358778 17.0261897,92.2358778 L22.0024079,92.2358778 L57.7144099,92.2358778 C67.1025815,92.2358778 74.7404844,84.6089754 74.7404844,75.2343251 L74.7404844,70.2651589 C74.7404844,60.8903936 67.1025815,53.2634912 57.7144099,53.2634912 L39.0285977,53.2634912 L39.0285977,17.1058345 C39.0285977,7.73106922 31.3906948,0.104166844 22.0024079,0.104166844 M22.0024079,5.854851 C28.1992992,5.854851 33.2696191,10.9177533 33.2696191,17.1058345 L33.2696191,59.0141754 L57.7144099,59.0141754 C63.9113012,59.0141754 68.9815059,64.0771927 68.9815059,70.2651589 L68.9815059,75.2343251 C68.9815059,81.4222913 63.9113012,86.4851936 57.7144099,86.4851936 L22.0029838,86.4851936 L22.0024079,86.4851936 L17.0261897,86.4851936 C14.121361,86.4851936 11.4640531,85.3727813 9.46061961,83.5533798 C9.32701131,83.4321554 9.1962825,83.3077106 9.06866353,83.1802754 C8.94104457,83.0527253 8.81642027,82.9222997 8.695021,82.7888839 C8.45210729,82.5221671 8.22174815,82.243834 8.00486501,81.9548046 C7.89648104,81.8103474 7.79155245,81.6631299 7.69007925,81.5134971 C7.63928506,81.4386232 7.5894123,81.3631742 7.54046098,81.2870352 C7.44244317,81.1347571 7.34799592,80.9800637 7.2573496,80.82307 C6.98518027,80.3518589 6.74629784,79.8594854 6.54369698,79.3490546 C6.47620175,79.1789494 6.41285298,79.0068889 6.3535355,78.8327582 C6.32381917,78.7458079 6.29525464,78.6582824 6.26772672,78.570412 C6.21267089,78.3945561 6.16176152,78.2168599 6.11522897,78.0374386 C5.8827966,77.1405619 5.75897856,76.2011301 5.75897856,75.2343251 L5.75897856,70.2651589 L5.75897856,17.1058345 C5.75897856,10.9177533 10.8291833,5.854851 17.0261897,5.854851 L22.0024079,5.854851" id="Fill-3"></path>
                </g>
            </g>
        </g>
    </g>
</svg>