<?xml version="1.0" encoding="UTF-8"?>
<svg width="843px" height="93px" viewBox="0 0 843 93" version="1.1" xmlns="http://www.w3.org/2000/svg" xmlns:xlink="http://www.w3.org/1999/xlink">
    <!-- Generator: Sketch 3.6.1 (26313) - http://www.bohemiancoding.com/sketch -->
    <title>Group 6</title>
    <desc>Created with Sketch.</desc>
    <defs>
        <path id="path-1" d="M0.0001,93 L87.5,93 L87.5,0.8683 L0.0001,0.8683 L0.0001,93 L0.0001,93 Z"></path>
    </defs>
    <g id="Page-1" stroke="none" stroke-width="1" fill="none" fill-rule="evenodd">
        <g id="Group-6" transform="translate(0.000000, -7.000000)">
            <g id="Group-2-Copy-3" transform="translate(135.000000, 0.000000)" font-size="80" font-family="CircularStd-Book, Circular Std" fill="#4A4A4A" font-weight="300">
                <text id="Hébergeuse-validée">
                    <tspan x="0" y="80">Hébergeuse validée</tspan>
                </text>
            </g>
            <g id="Page-1" transform="translate(0.000000, 6.000000)">
                <g id="Group-3" transform="translate(0.000000, 0.131700)">
                    <mask id="mask-2" fill="white">
                        <use xlink:href="#path-1"></use>
                    </mask>
                    <g id="Clip-2"></g>
                    <path d="M69.8651,0.8683 L65.8011,0.8683 C56.1021,0.8683 48.1671,8.8043 48.1671,18.5033 L48.1671,36.7073 L39.3331,36.7073 L39.3331,18.5033 C39.3331,8.8043 31.3981,0.8683 21.6981,0.8683 L17.6351,0.8683 C7.9361,0.8683 0.0001,8.8043 0.0001,18.5033 L0.0001,75.3653 C0.0001,85.0643 7.9361,93.0003 17.6351,93.0003 L21.6981,93.0003 C31.3981,93.0003 39.3331,85.0643 39.3331,75.3653 L39.3331,58.8743 L48.1671,58.8743 L48.1671,75.3653 C48.1671,85.0643 56.1021,93.0003 65.8011,93.0003 L69.8651,93.0003 C79.5641,93.0003 87.5001,85.0643 87.5001,75.3653 L87.5001,18.5033 C87.5001,8.8043 79.5641,0.8683 69.8651,0.8683" id="Fill-1" fill="#9A97FF" mask="url(#mask-2)"></path>
                </g>
                <path d="M54.1667,75.4968 C54.1667,81.9118 59.3857,87.1318 65.8017,87.1318 L69.8647,87.1318 C76.2807,87.1318 81.4997,81.9118 81.4997,75.4968 L81.4997,18.6348 C81.4997,12.2198 76.2807,6.9998 69.8647,6.9998 L65.8017,6.9998 C59.3857,6.9998 54.1667,12.2198 54.1667,18.6348 L54.1667,36.8388 L54.1667,42.8388 L48.1667,42.8388 L39.3337,42.8388 L33.3337,42.8388 L33.3337,36.8388 L33.3337,18.6348 C33.3337,12.2198 28.1137,6.9998 21.6987,6.9998 L17.6347,6.9998 C11.2197,6.9998 5.9997,12.2198 5.9997,18.6348 L5.9997,75.4968 C5.9997,81.9118 11.2197,87.1318 17.6347,87.1318 L21.6987,87.1318 C28.1137,87.1318 33.3337,81.9118 33.3337,75.4968 L33.3337,59.0058 L33.3337,53.0058 L39.3337,53.0058 L48.1667,53.0058 L54.1667,53.0058 L54.1667,59.0058 L54.1667,75.4968 Z" id="Fill-4" fill="#FEFEFE"></path>
            </g>
        </g>
    </g>
</svg>